<svg xmlns="http://www.w3.org/2000/svg" viewBox="0 0 200 200">
  <rect width="200" height="200" rx="44" fill="#00aeef"/>
  <rect width="200" height="200" rx="44" fill="none" stroke="rgba(255,255,255,0.25)" stroke-width="5"/>
  <defs>
    <linearGradient id="fl" x1="0%" y1="0%" x2="100%" y2="100%"><stop offset="0%" stop-color="#fff"/><stop offset="100%" stop-color="rgba(255,255,255,0.45)" stop-opacity="0.8"/></linearGradient>
    <linearGradient id="fr" x1="100%" y1="0%" x2="0%" y2="100%"><stop offset="0%" stop-color="rgba(255,255,255,0.9)" stop-opacity="0.95"/><stop offset="100%" stop-color="rgba(255,255,255,0.45)" stop-opacity="0.7"/></linearGradient>
    <linearGradient id="fi" x1="50%" y1="0%" x2="50%" y2="100%"><stop offset="0%" stop-color="rgba(255,255,255,0.9)" stop-opacity="0.75"/><stop offset="100%" stop-color="rgba(255,255,255,0.45)" stop-opacity="0.3"/></linearGradient>
  </defs>
  <g transform="translate(100,100) scale(0.72) translate(-100,-100)">
    <polygon points="40,20 45,105 100,178" fill="url(#fl)"/>
    <polygon points="160,20 155,105 100,178" fill="url(#fr)"/>
    <polygon points="100,55 55,60 45,105 100,178" fill="url(#fr)"/>
    <polygon points="100,55 145,60 155,105 100,178" fill="url(#fl)"/>
    <polygon points="100,55 55,60 100,178 145,60" fill="url(#fi)" opacity="0.58"/>
  </g>
  <path d="M 115.2,23.5 A 78,78 0 0 1 168.7,63.1" fill="none" stroke="#fff" stroke-width="5.0" stroke-linecap="round"/>
  <path d="M 168.4,55.6 L 168.7,63.1 L 162.6,58.7" fill="none" stroke="#fff" stroke-width="5.0" stroke-linecap="round" stroke-linejoin="round"/>
  <path d="M 177.6,92.2 A 78,78 0 0 1 157.3,153.0" fill="none" stroke="#fff" stroke-width="5.0" stroke-linecap="round"/>
  <path d="M 164.2,150.2 L 157.3,153.0 L 159.5,145.8" fill="none" stroke="#fff" stroke-width="5.0" stroke-linecap="round" stroke-linejoin="round"/>
  <path d="M 132.7,170.8 A 78,78 0 0 1 67.3,170.8" fill="none" stroke="#fff" stroke-width="5.0" stroke-linecap="round"/>
  <path d="M 72.1,176.6 L 67.3,170.8 L 74.8,170.7" fill="none" stroke="#fff" stroke-width="5.0" stroke-linecap="round" stroke-linejoin="round"/>
  <path d="M 42.7,153.0 A 78,78 0 0 1 22.4,92.2" fill="none" stroke="#fff" stroke-width="5.0" stroke-linecap="round"/>
  <path d="M 18.5,98.6 L 22.4,92.2 L 25.0,99.2" fill="none" stroke="#fff" stroke-width="5.0" stroke-linecap="round" stroke-linejoin="round"/>
  <path d="M 31.3,63.1 A 78,78 0 0 1 84.8,23.5" fill="none" stroke="#fff" stroke-width="5.0" stroke-linecap="round"/>
  <path d="M 77.5,21.6 L 84.8,23.5 L 78.8,28.0" fill="none" stroke="#fff" stroke-width="5.0" stroke-linecap="round" stroke-linejoin="round"/>
  <circle cx="100.0" cy="22.0" r="7" fill="none" stroke="#fff" stroke-width="4.2"/>
  <circle cx="174.6" cy="77.2" r="7" fill="none" stroke="#fff" stroke-width="4.2"/>
  <circle cx="145.8" cy="163.1" r="7" fill="none" stroke="#fff" stroke-width="4.2"/>
  <circle cx="54.2" cy="163.1" r="7" fill="none" stroke="#fff" stroke-width="4.2"/>
  <circle cx="25.4" cy="77.2" r="7" fill="none" stroke="#fff" stroke-width="4.2"/>
</svg>
