<svg xmlns="http://www.w3.org/2000/svg" viewBox="0 0 235 36">
  <!-- Icon pill -->
  <rect width="36" height="36" rx="10" fill="rgba(0,174,239,0.13)" fill-opacity="1"/>
  <rect width="36" height="36" rx="10" fill="none" stroke="rgba(0,174,239,0.28)" stroke-width="1"/>
  <!-- Icon (200x200 → 36x36) -->
  <g transform="scale(0.18)">
    <!-- Fox face -->
    <defs>
      <linearGradient id="fl" x1="0%" y1="0%" x2="100%" y2="100%">
        <stop offset="0%" stop-color="#1a9fff" stop-opacity="1"/>
        <stop offset="100%" stop-color="#005de8" stop-opacity="0.8"/>
      </linearGradient>
      <linearGradient id="fr" x1="100%" y1="0%" x2="0%" y2="100%">
        <stop offset="0%" stop-color="#38c8ff" stop-opacity="0.95"/>
        <stop offset="100%" stop-color="#005de8" stop-opacity="0.7"/>
      </linearGradient>
      <linearGradient id="fi" x1="50%" y1="0%" x2="50%" y2="100%">
        <stop offset="0%" stop-color="#38c8ff" stop-opacity="0.75"/>
        <stop offset="100%" stop-color="#005de8" stop-opacity="0.3"/>
      </linearGradient>
    </defs>
    <g transform="translate(100,100) scale(0.72) translate(-100,-100)">
    <polygon points="40,20 45,105 100,178" fill="url(#fl)"/>
    <polygon points="160,20 155,105 100,178" fill="url(#fr)"/>
    <polygon points="100,55 55,60 45,105 100,178" fill="url(#fr)"/>
    <polygon points="100,55 145,60 155,105 100,178" fill="url(#fl)"/>
    <polygon points="100,55 55,60 100,178 145,60" fill="url(#fi)" opacity="0.58"/>
    </g>
    <path d="M 115.2,23.5 A 78,78 0 0 1 168.7,63.1" fill="none" stroke="#1a8fff" stroke-width="5.0" stroke-linecap="round"/>    <path d="M 168.4,55.6 L 168.7,63.1 L 162.6,58.7" fill="none" stroke="#1a8fff" stroke-width="5.0" stroke-linecap="round" stroke-linejoin="round"/>    <path d="M 177.6,92.2 A 78,78 0 0 1 157.3,153.0" fill="none" stroke="#1a8fff" stroke-width="5.0" stroke-linecap="round"/>    <path d="M 164.2,150.2 L 157.3,153.0 L 159.5,145.8" fill="none" stroke="#1a8fff" stroke-width="5.0" stroke-linecap="round" stroke-linejoin="round"/>    <path d="M 132.7,170.8 A 78,78 0 0 1 67.3,170.8" fill="none" stroke="#1a8fff" stroke-width="5.0" stroke-linecap="round"/>    <path d="M 72.1,176.6 L 67.3,170.8 L 74.8,170.7" fill="none" stroke="#1a8fff" stroke-width="5.0" stroke-linecap="round" stroke-linejoin="round"/>    <path d="M 42.7,153.0 A 78,78 0 0 1 22.4,92.2" fill="none" stroke="#1a8fff" stroke-width="5.0" stroke-linecap="round"/>    <path d="M 18.5,98.6 L 22.4,92.2 L 25.0,99.2" fill="none" stroke="#1a8fff" stroke-width="5.0" stroke-linecap="round" stroke-linejoin="round"/>    <path d="M 31.3,63.1 A 78,78 0 0 1 84.8,23.5" fill="none" stroke="#1a8fff" stroke-width="5.0" stroke-linecap="round"/>    <path d="M 77.5,21.6 L 84.8,23.5 L 78.8,28.0" fill="none" stroke="#1a8fff" stroke-width="5.0" stroke-linecap="round" stroke-linejoin="round"/>    <circle cx="100.0" cy="22.0" r="7" fill="none" stroke="#1a8fff" stroke-width="4.2"/>    <circle cx="174.6" cy="77.2" r="7" fill="none" stroke="#1a8fff" stroke-width="4.2"/>    <circle cx="145.8" cy="163.1" r="7" fill="none" stroke="#1a8fff" stroke-width="4.2"/>    <circle cx="54.2" cy="163.1" r="7" fill="none" stroke="#1a8fff" stroke-width="4.2"/>    <circle cx="25.4" cy="77.2" r="7" fill="none" stroke="#1a8fff" stroke-width="4.2"/>
  </g>
  <!-- Barclays wordmark (142x24 → 89x15, at x=46 y=0) -->
  <g transform="translate(46,0) scale(0.625000)">
    <path d="M11.2 10.1c2.4-.6 5.1-2.3 5.1-5.2C16.3.6 12.2.6 10.1.6H1.5c.4.2.6 1.3.6 2.8 0 1.8-.1 4.3-.4 7.7l-.1 1.4C1.2 18.4 1 21.8 0 22.6h7.7c5.9 0 9.5-3 9.5-6.9.1-3.6-2.5-5.2-6-5.6zM6.1 7.9c.1-1.6.3-3.2.5-4.7.5-.1 1.1-.1 1.5-.1 2.6 0 3.8 1.1 3.8 2.6 0 2.6-2.6 3.6-5.4 3.6H6l.1-1.4zm1.4 11.9c-1.5 0-2.1-.4-2.1-.6 0-1.4.1-2.5.2-4l.2-3.2h1.6c2.9 0 5.2.9 5.2 3.8 0 2.6-2 4-5.1 4zm129.2-10c-2.2-1.4-4.3-2.6-4.3-4.2 0-2 1.7-2.8 3.6-2.8 2.2 0 4.1 1.3 5 2.9l.6-5.2c-1.5 0-3-.4-5.4-.4-4.1 0-8.1 1.6-8.1 6.3 0 3.2 2.3 4.9 5.9 7.1 1.7 1 3.1 2.1 3.1 3.7 0 2-1.7 3.1-4 3.1-3 0-5-1.7-6.1-4l-.4 5.5c2.3.9 4.3 1.2 6.2 1.2 4.7 0 8.7-2.6 8.7-6.7 0-3.2-2.4-5-4.8-6.5zm-15.7.9c1.1-1.8 6.2-9.9 7.4-10.1h-5.9c.2.2.3.8.3 1.3 0 .7-.3 1.3-.6 1.9-1.4 2.2-2.4 3.9-4 6.2-.6-1.8-1.7-4.2-3.1-7.5-.9-2-1.3-2.2-2.8-2.2-.8 0-2.6.1-3.9.2.8.4 2 2.3 3.1 4.3 1.7 3.2 2.8 5.9 3.6 8.7.1 1.9-.4 8.1-1.4 9.1h6c-.5-.5-.6-1.8-.6-2.8 0-2.4.2-4.6.5-6.2.2-.9.9-2 1.4-2.9zm-64.7 8.2l-4.5-6c-.3-.4-.8-1.1-1.1-1.3 2.9-.9 5.3-2.8 5.3-6.3C56 1 52.3.6 49.7.6h-8.2c.4.2.6 1.2.6 2.8 0 1.8-.1 4.3-.4 7.7l-.1 1.4c-.5 6.8-.8 9.4-1.7 10.1h6c-.4-.2-.6-1.3-.6-2.8 0-1.3.1-3.1.2-5.4l.1-1.6h.1c.8 0 1.1.5 1.6 1.1l6.2 8.6c.5.7.9 1 2.6 1 1.1 0 2.8-.1 4-.2-.7-.5-1-.7-3.8-4.4zM47 10c-.3 0-.7 0-1-.1l.1-1.5c.2-2.6.3-4.3.5-5.2.5-.1 1.2-.1 1.7-.1 2.1 0 3.3 1 3.3 2.7 0 2.6-1.9 4.2-4.6 4.2zm-12.3 2.7l-.9-3.4L31.4.6h-4.8c.2.2.3.7.3 1.2S25.4 5.6 24 8.6l-1.5 3.3c-2.7 5.7-4.6 9.2-6.1 10.7h5.3c-.1-.2-.1-.7-.1-1 0-1.2 1.1-3.3 1.5-4.3l.5-.9h2.6c2.6 0 4.2-.3 5.2-.7l.5 1.9c1.5 5.2 1.7 5.3 3.6 5.3.6 0 2.1-.1 3.4-.2-1.5-1.3-2.5-4.1-4.2-10zm-9.9.6l3.6-7.7 2.2 7.7h-5.8zm38.8-1.1c0-4.4 1.9-9.5 6.6-9.5 2.4 0 4.2 1.3 5.2 3.3L76 .4c-1.9 0-3-.4-5.4-.4C63 0 59 5.7 59 13c0 5.3 3.3 10 9 10 4.4 0 7-2.2 8.2-5.9-2.8 2-4.5 2.5-6.4 2.5-3.5 0-6.2-2.6-6.2-7.4zm42.9.5l-.9-3.4c-.4-1.5-2.4-8.7-2.4-8.7h-4.8c.2.2.3.7.3 1.2 0 .6-1.4 3.7-2.9 6.8l-1.5 3.3c-1.1 2.5-2.3 4.8-3.4 6.7-1.7 1.1-2.6 1.2-6.2 1.2-1 0-1.4-.2-1.4-1.2 0-2.2.3-4.4.4-6.6l.1-1.3c.4-5.9.7-9.5 1.6-10h-6c.4.5.5 1.3.6 2.8 0 1.8-.1 4.3-.4 7.7l-.1 1.4c-.4 5.9-.7 9.1-1.6 10.1h15.6c-.1-.2-.1-.7-.1-1 0-1.2.9-2.9 1.5-4.3l.5-.9H98c2.6 0 4.2-.3 5.2-.7l.5 1.9c1.5 5.2 1.7 5.3 3.6 5.3.6 0 2.2-.1 3.4-.2-1.6-1.4-2.6-4.2-4.2-10.1zm-9.9.6l3.6-7.7 2.2 7.7h-5.8z" fill="#00aeef"/>
  </g>
  <!-- GitLab Orchestrator -->
  <text x="46" y="32" font-family="'Cinzel','Trajan Pro','Times New Roman',serif" font-size="17" font-weight="700" fill="#00aeef" letter-spacing="0.8">GitLab Orchestrator</text>
</svg>